# xmcd CD database file
#
# Track frame offsets:
#	183
#	171880
#	232853
#
# Disc length: 4135 seconds
#
# Revision: 0
# Processed by: cddbd v1.5.2PL0 Copyright (c) Steve Scherf et al.
# Submitted via: CDex 1.51
#
DISCID=18102503
DTITLE=Don Cherry - Mu (The Complete Session)
DYEAR=1996
DGENRE=Jazz
TTITLE0=Brilliant Action, Amejelo, Total Vibration, Sun Of The East, Terrestrial Being
TTITLE1=The Mysticism Of My Sound, Medley, Bamboo Night
TTITLE2=Teo-Teo Can, Smiling Faces, Going Places, Psycho Drama, Medely
EXTD=YEAR: 1996
EXTT0=
EXTT1=
EXTT2=
PLAYORDER=
